<?xml version="1.0" encoding="utf-8"?>
<!-- Generator: Adobe Illustrator 24.0.2, SVG Export Plug-In . SVG Version: 6.00 Build 0)  -->
<svg version="1.1" id="レイヤー_1" xmlns="http://www.w3.org/2000/svg" xmlns:xlink="http://www.w3.org/1999/xlink" x="0px"
	 y="0px" viewBox="0 0 449.2 420.2" style="enable-background:new 0 0 449.2 420.2;" xml:space="preserve">
<style type="text/css">
	.st0{fill:#FFFFFF;}
	.st1{enable-background:new    ;}
</style>
<title>アセット 1</title>
<g id="レイヤー_2_1_">
	<g id="レイヤー_1-2">
		<path class="st0" d="M353,173.3c3.4,0.8,5.9,2.6,8.5,5.1c2.2,2.3,3.5,5.3,3.4,8.5c-0.1,3.6-1.7,6.9-4.3,9.4
			c-1.1,1.1-2.8,1.5-4.3,0.8c-0.8-0.8-0.8-0.8-0.8-1.6c0-1.6,1.7-3.4,1.7-5.9c1.6-5.1-0.8-10.2-6.8-11.8c-0.8,0-3.4-0.8-3.4-1.6
			C346.9,174.1,349.6,172.5,353,173.3z"/>
		<path class="st0" d="M333.5,206.5c4.3,0.8,8.5,3.4,10.2,6.7c2.3,3.2,3.5,7.1,3.4,11c0,4.3-2.6,8.5-5.1,11.8
			c-0.8,0.8-3.4,1.7-4.3,0.8v-2.6c0-3.4,1.6-5.9,2.6-9.4c0.8-5.9-4.3-11.8-10.2-13.6c-0.8,0-3.4-0.8-3.4-2.6
			C325.8,204.7,330.8,205.5,333.5,206.5z"/>
		<path class="st0" d="M250.1,104.5c-7.7,4.3-8.5,6.7-11,10.2c-2.6,0.8-6.7,5.1-9.4,7.7c-3.4,4.3-5.1,8.5-5.1,9.4
			c0.8,0.8,5.1,2.6,6.7,1.6c0.8,0,4.3-7.7,5.9-12.8c1.7-0.1,3.5,0.2,5.1,0.8c1.6,0.8,61.2,79,63.7,81.6s6.7,5.1,7.7,4.3
			s-0.8-5.9-3.4-8.5c-0.8-0.8-62.1-81.6-62.1-81.6l0.8-3.4l1.6,0.8l1.6-5.1v2.6l1.6-4.3l0.8,2.6l1.6-3.4l0.8,2.6l1.6-3.4l0.8,2.6
			l1.6-3.4v1.7l2.6-3.4l0.8,1.7l2.6-4.3v2.6l2.6-3.4v1.7l2.6-2.6v-1.7c-0.4-0.5-1.2-0.5-1.6,0c0,0,0,0,0,0
			C263.7,98.4,255.2,101.9,250.1,104.5z M309.7,200.4c0.5,0.9,0.2,2.1-0.7,2.6c-0.9,0.5-2.1,0.2-2.6-0.7c0,0,0-0.1-0.1-0.1
			c-0.1-0.9,0.2-1.9,0.8-2.6C307.9,198.8,308.7,199.6,309.7,200.4L309.7,200.4z M246.8,113.9c0.8,1.7,0,2.6-1.7,3.4s-2.6,0-3.4-1.7
			s0-2.6,1.7-3.4S245.9,112.1,246.8,113.9L246.8,113.9z"/>
		<circle class="st0" cx="227.2" cy="38.2" r="2.6"/>
		<path class="st0" d="M126.9,239.5v-2.6h-1.7L126.9,239.5z"/>
		<path class="st0" d="M106.5,238.7l2.6-1.6h0.8l0.8,0.8v4.3l2.6-3.4h0.8c0.4,0,0.8,0.3,0.8,0.8c0,0,0,0,0,0l1.7,3.4l1.7-4.3
			l0.8-0.8c0.4,0,0.8,0.3,0.8,0.8c0,0,0,0,0,0l1.7,3.4l0.8-3.4v-0.8c-2.6,0-5.9-0.8-6.8,0c-1.7,0-5.1-0.8-6.7-0.8
			c-0.9,0.1-1.9-0.2-2.6-0.8v2.5L106.5,238.7z"/>
		<path class="st0" d="M137.9,253.1c0-1.6-3.4-5.9-3.4-6.8s0.8-2.6,0.8-4.3s0-6.7-0.8-7.7c0-0.8-1.6-1.6-2.6,0
			c-1,1.5-2.5,2.7-4.3,3.4l0.8,5.1c0,0.8,0,0.8-0.8,0.8h-0.8l-1.7-3.4l-0.8,4.3c-0.1,0.5-0.5,0.8-0.9,0.7c-0.4,0-0.7-0.3-0.7-0.7
			l-2.6-3.4l-2.6,5.1l-0.8,0.8l0,0c-0.4,0-0.8-0.3-0.8-0.8c0,0,0,0,0,0l-1.7-5.1l-3.4,4.3c0,0-0.8,0.8-0.8,0l-0.8-0.8l-0.8-5.1
			l-3.4,2.6h-0.8c0,0-0.8-0.8,0-0.8l0.8-2.6l-2.6,1.6h-0.8c0,0-0.8-0.8,0-0.8l1.7-4.3c-1.8-1.8-3.6-3.8-5.1-5.9
			c-1.2-2.6-3.3-4.7-5.8-5.9c-1.7-0.8-4.3,0-4.3,0.8c-1.1,1-1.9,2.2-2.6,3.4v1.6h-0.8c-0.1,1.5,0.2,2.9,0.8,4.3h0.8v1.6h-0.8v0.8
			c0,0.8,0.8,1.7,0.8,2.6h0.8l0.8,1.6h-0.8c0.8,1.6,0.8,2.6,1.7,3.4h0.8l0.8,1.6h-0.9c1.1,1,1.9,2.2,2.6,3.4h0.8l-1.7-1.6h-0.8
			c0.8,0.8,1.7,2.6,2.6,2.6l0,0l0.8-0.8l0.8,0.8l-0.8,0.8c1,0.9,2.2,1.5,3.4,1.6v-0.8l1.7,2.6v0.8c0.8,0,1.7,0.8,2.6,1.7
			c1,0.8,1.7,1.6,1.7,2.6c-0.1,0.9,0.2,1.9,0.8,2.6h0.8v0.8h-0.8c0.2,1.3,0.8,2.5,1.7,3.4h0.8l0.8,1.6h-0.8c0.8,0.8,0.8,2.6,1.7,3.4
			l0,0v-0.8l0.8,0.8l-0.8,0.8l2.6,2.6v-1.1l1.7,0.8v0.8c0.4,0.5,1,0.8,1.7,0.8c1.5,0.6,3.1,0.3,4.3-0.8c0.8-0.8,1.7-0.8,2.6-2.6
			c0.8-0.8,1.7-2.6,0.8-2.6c1.7-1.7,3.4-2.6,4.3-3.4s1.7-1.7,2.6-1.7c0.8-0.8,1.6-1.6,1.6-2.6s3.4-3.4,5.1-4.3
			C137.9,256.6,137.9,254.9,137.9,253.1z"/>
		<path class="st0" d="M103.1,234.4l-0.8,1.6l1.7-0.8C103.9,235.4,103.9,234.4,103.1,234.4z"/>
		<path class="st0" d="M210.2,315.2h3.4l-2.6-2.6l0,0c0,0.8,0,0.8-0.8,1.7L210.2,315.2L210.2,315.2z"/>
		<path class="st0" d="M214.4,310.1l-1.6-0.8c0,0.8-0.8,0.8-0.8,1.6L214.4,310.1z"/>
		<path class="st0" d="M246.8,326.2c0-0.8-0.8-1.6-0.8-3.4s-1.6-1.6-2.6-1.6c-0.8-2.6-0.8-4.3-1.7-5.1c-0.1-0.9-0.4-1.8-0.8-2.6
			c-0.8-0.8-0.8-1.6-1.6-2.6c-0.8,0-1.6-5.1-0.8-6.8c0.8-2.6-2.6-4.3-4.3-4.3c-1.7-0.8-7.7,0.8-7.7,0.8c-1.5-0.3-2.9-0.9-4.3-1.6
			c-1.6-0.8-5.9-3.4-7.7-2.6c0,0-2.6,0.8-0.8,2.6c1.6,2.6,1.6,4.3,0.8,5.9l2.6,0.8l1.6-0.8c0,0.8,0,0.8-0.8,0.8l-3.4,1.7l2.6,1.7
			c0,0,0.8,0.8,0,0.8c0,0.4-0.3,0.8-0.8,0.8c0,0,0,0,0,0l-3.4,0.8l2.6,2.6v0.8l-0.8,0.8h-4.2l1.6,2.6v0.8l-0.8,0.8H206l1.7,2.6v0.8
			l-0.8,0.8l-4.3-0.8l1.7,3.4v0.8h-0.8l-5.9-1.6c-0.4,0-0.8-0.4-0.8-0.8c0,0,0,0,0,0c-1.7,0-3.5,0.3-5.1,0.8
			c-4.3,0.8-5.9-1.6-8.5,3.4c1.6,1.6,1.6,5.1,1.6,5.9c0.4,1.7,1.3,3.2,2.6,4.3l1.6,0.8v0.8l0,0c0.8,0,2.6,0.8,3.4,0.8v-0.8h1.6v0.8
			h3.4v-0.8h1.6v0.8h3.4v-0.8h1.7v0.8c0.8,0,2.6,0,3.4-0.8v-0.8h1.6v0.8c1.6,0,2.6-0.8,3.4-0.8l0,0v-0.8l1.6-0.8v0.8
			c0.8-0.8,2.6-1.6,2.6-2.6l0,0l0.8-0.8l0.8,0.8c0.8-0.8,1.7-1.6,2.6-1.6s2.6-0.8,3.4,0h2.6v-0.8h1.7v0.8h4.3v-0.8h1.6v0.8h3.4v-0.8
			l1.6-0.8v0.8c0.8-0.8,2.6-0.8,3.4-1.6v-0.8l0.8-1.6v0.8c0.4-0.5,1-0.8,1.6-0.8C247.6,328.8,247.6,327,246.8,326.2z"/>
		<path class="st0" d="M204.3,326.2l-0.8-2.6l-1.6,1.6l0,0L204.3,326.2z"/>
		<path class="st0" d="M209.3,316.8L209.3,316.8l-2.6,2.6h4.3L209.3,316.8z"/>
		<path class="st0" d="M207.7,322.9l-1.7-2.6l0,0l-1.6,1.6L207.7,322.9z"/>
		<path class="st0" d="M278.1,70.5L278.1,70.5c-4.3-2.6-6.7-9.4-9.4-16.9c-0.8-3.4-2.6-6.8-3.4-9.4c-4.3-9.4-5.9-23-4.3-28.1
			c-1.7-4.3-5.1-16.1-10.2-16.1c-6.7-0.8-8.5,7.7-8.5,10.2s2.6,13.6,4.3,18.8s8.5,16.1,10.2,19.5c1.6,2.6,5.1,10.2,5.1,10.2
			s-0.8,0.8,1.6,10.2s6.8,13.6,9.4,16.1c5.1,4.3,9.4,2.6,9.4,2.6l-1.6-10.2C279.3,75.3,278.5,73,278.1,70.5z"/>
		<path class="st0" d="M297.7,44.1c0-3.4-5.1-11-6.7-15.3s-5.1-13.6-12.8-13.6c-4.9,0-9.7,0.6-14.5,1.7c-0.8,3.4,0,16.1,4.3,25.5
			c1.6,3.4,2.6,6.7,4.3,10.2c2.6,6.8,5.1,13.6,8.5,14.5l0.8-0.8c1.6-1.7,5.1-4.3,7.7-6.7c2.6-3.5,4.3-3.5,6.7-5.1
			C296.9,52.6,297.7,47.5,297.7,44.1z"/>
		<path class="st0" d="M259.4,54.3l-0.8-1.7c-5.7,4.3-11.7,8.2-17.9,11.8c-4.3,2.6-19.5,8.5-23.8,10.2c1.9-2.3,3.4-4.9,4.3-7.7
			c0.8-2.6,2.6-5.1,2.6-6.7c0.8-2.6,1.6-2.6,1.6-3.4c-0.8,0-0.8-0.8-1.6-1.7c-1.6,3-3,6.2-4.3,9.4c-1.6,3.4-3.4,6.7-5.1,8.5l0,0
			c-0.8-0.8-2.6-1.7-3.4-0.8l-0.8,0.8c-0.8,1-0.8,2.4,0,3.4v0.8c-2.9,1.6-6.1,2.8-9.4,3.4c0,0-8.5,1.7-11,1.7c0,0-11.8,0.8-11.8,3.4
			c0,1.2,0.3,2.4,0.8,3.4c1.6,1.7,5.9,3.4,10.2,3.4h1.6c5.1,0,8.5-2.6,12.8-4.3c1.6-0.8,5.9-4.3,9.4-6.7l0,0
			c0.8,0.8,2.6,1.7,3.4,0.8l0.8-0.8c1.6-1.7,1.6-2.6,0.8-4.3l-0.8-0.8c1.6,0,5.1-1.7,10.2-4.3c0.8-0.8,9.4-4.3,14.4-6.7
			C250.1,62,257,56.9,259.4,54.3z M202.6,85.8c-3.4,2.6-6.7,3.4-11,4.3c-5.1,0-5.9,0-8.5-0.8c-1.4-0.1-2.5-1.2-2.6-2.6
			c0-0.8,6.7-1.7,8.5-1.7c2.6,0,14.4-2.6,14.4-2.6c1.6,0,7.7-3.4,7.7-3.4C208.5,81.5,205.7,83.8,202.6,85.8z"/>
		<path class="st0" d="M290.1,192.9c-1.6-1.7-3.4-3.4-5.9-4.3c0-0.8,0.8-0.8,0.8-1.6c0.8-3.4-1.6-8.5-4.3-13.6
			c1.6-0.8,4.3-1.6,5.1-2.6c1.6-0.8,2.6-5.9,2.6-7.7c-0.3-3.5-1.8-6.8-4.3-9.4c-2.6-2.6-22.2-19.5-24.6-20.4c-3.1-0.8-6.3-0.8-9.4,0
			c-3.1,2-5.9,4.2-8.5,6.7c-3.9-0.9-7.8-1.4-11.8-1.6c-7.7,0-19.5,5.9-18.7,18.7c0.8,9.4,25.4,17.9,28.9,23
			c10.2,14.4,9.4,19.5,11.8,21.2c2.6,2.6,8.5,0.8,11.8-0.8c-0.8,3.4,0,5.9,2.6,9.4c4.3,5.9,12.8,6.7,19.5,1.6
			S294.2,197.9,290.1,192.9z M246.8,174.1c0.8-0.8,4.3-1.6,7.7-3.4c2.6-1.6,5.1-4.3,6.7-5.1c0.6,0.1,1.2,0.4,1.6,0.8
			c0.8,2.6-0.8,5.1-3.4,7.7c-1-0.1-1.9,0.2-2.6,0.8c-0.8,0.8-0.8,0.8-0.8,1.6c-0.7,0.7-1.7,1-2.6,0.8c-1.6,0-5.1,0-5.9-0.8
			C246.8,175,246.8,175,246.8,174.1L246.8,174.1z M273,180.1c-0.8,1.6-5.1,5.9-7.7,7.7c-1.9,1.6-4.3,2.5-6.7,2.6
			c-1.6,0-5.1-5.1-6.7-6.7c-0.8-0.8-1.6-2.6-2.6-3.4h4.3c0.8,0,2.6-0.8,3.4-0.8c1,0.8,2.4,0.8,3.4,0c0.7-0.7,1-1.7,0.8-2.6
			c2.6-2.6,4.3-4.3,4.3-6.7c1.6,1.6,4.3,4.3,5.1,5.9C272.2,176.6,273.9,179.2,273,180.1z"/>
		<path class="st0" d="M285,254.9c2.6-1.6,5.9-2.6,9.4-4.3c13.6-5.1,21.2-23,15.3-37.4c-8.5,5.9-19.5,9.4-29.7,10.2
			c-3.4,0-5.9,0-8.5-1.6c-4.3-2.6-5.9-6.7-7.7-10.2c-6.7-16.1-16.9-33.2-33.2-39.9c-7.7-3.4-17.9-4.3-23.8-10.2s-6.7-16.1-3.4-24.6
			s9.4-14.4,15.3-20.4c10.2-9.3,21.2-18.7,29.7-29.7s15.3-25.5,13.6-39.1c-1.6-14.5-12.8-28.1-26.3-28.9c-5.9-0.8-12.8,0.8-16.9-2.6
			s-4.3-9.4-9.4-11.8c-4.3,6.7,5.9,18.7,6.7,26.3c0.8,3.4,0,7.7,0,11c0.9,7.3,5.3,13.6,11.8,16.9c2.6,1.7,5.9,2.6,6.8,5.1
			s-0.8,5.1-3.4,7.7c-18.7,20.4-46.8,31.4-66.3,50.9c-21.2,20.4-33.2,50.9-28.9,79.8c2.5,13.4,7.7,26.1,15.3,37.4
			c-2.6-1.6-4.3-2.6-5.9-2.6c-3.2-0.2-6.4,0.4-9.4,1.6l-1.6,7.7l1.6,3.4c1.9-1.1,3.8-2,5.9-2.6c3.4-1.6,5.1,2.6,10.2,4.3
			c3.6,1,7.3,1.6,11,1.6c2.6,2.6,4.3,5.1,6.7,7.7c12.8,12.8,28.9,23,46.8,27.2c1.7,4.7,3.2,9.5,4.3,14.5c0,0,9.4,0,9.4-2.6
			c0-0.8-0.8-5.9-1.6-10.2c12.8,0,25.5-3.4,35.6-10.2c7.7,1.6,17.9,1.6,26.3-6.7c-5.1,0-7.7-1.6-9.4-5.9c3.4,1.6,10.2,5.1,18.7-2.6
			c-3.4,0-11-2.6-18.7-5.9C282.4,257.4,283.2,255.7,285,254.9z M228.9,43.3c-3.3,0-5.9-2.6-5.9-5.9c0-3.3,2.6-5.9,5.9-5.9
			c3.3,0,5.9,2.6,5.9,5.9c0,0,0,0,0,0C234.8,40.6,232.1,43.3,228.9,43.3z M232.3,28.8c1.8,0.3,3.5,0.9,5.1,1.6
			c1.8,1,3.3,2.5,4.3,4.3c0.7,0.7,1,1.7,0.8,2.6c0,1,0,1.7-1.6,1.7c-0.8,0-1.6-1.7-1.6-3.4c-0.8-2.6-2.6-3.4-4.3-5.1
			C234.1,29.8,233.3,29.2,232.3,28.8z"/>
		<g class="st1">
			<path class="st0" d="M63.1,406.9c0.6,0.5,2.1,2.2,2.5,2.7l-0.7,0.9c-0.3-0.5-1.2-1.6-1.8-2.4v7.7h-1.2v-8.2
				c-0.7,1.9-1.6,3.9-2.4,5c-0.1-0.3-0.4-0.8-0.6-1c1-1.3,2.1-3.7,2.8-5.8H59v-1.1h2.9v-3c-0.9,0.2-1.7,0.5-2.6,0.7
				c-0.1-0.2-0.2-0.6-0.4-0.9c2-0.5,4.4-1.2,5.6-2l1.1,0.9c-0.1,0.1-0.1,0.1-0.2,0.1c-0.1,0-0.1,0-0.2,0c-0.6,0.3-1.3,0.6-2.2,0.9
				v3.3h2.4v1.1h-2.4V406.9z M75.2,408.8h-4.1c0.7,2.7,2.1,4.9,4.1,5.9c-0.3,0.2-0.7,0.7-0.8,1c-2-1.2-3.3-3.4-4.1-6.1
				c-0.6,2.2-1.9,4.4-4.8,6.1c-0.2-0.2-0.6-0.7-0.8-0.9c3-1.6,4.2-3.9,4.6-6.1h-3.9v-1.1h4.1c0.1-0.9,0.1-1.7,0.1-2.5V404h-2.1
				c-0.3,1-0.7,2-1.1,2.7c-0.2-0.2-0.6-0.4-0.9-0.6c0.8-1.3,1.4-3.5,1.7-5.8l1.4,0.3c0,0.1-0.1,0.2-0.3,0.2c-0.1,0.7-0.2,1.4-0.4,2
				h1.9v-3.3l1.5,0.1c0,0.1-0.1,0.2-0.3,0.2v3h3.6v1.1h-3.6v1.2c0,0.8,0,1.7-0.1,2.5h4.5V408.8z"/>
			<path class="st0" d="M81.4,404.7c0.7,2,1.8,3.8,3.1,5.3c1.3-1.5,2.4-3.3,3.1-5.4l1.5,0.5c-0.1,0.1-0.2,0.2-0.4,0.2
				c-0.8,2.2-1.9,4.1-3.3,5.6c1.9,1.8,4.3,3.1,7.3,3.7c-0.3,0.3-0.6,0.8-0.9,1.2c-3-0.8-5.4-2.1-7.3-4c-1.9,1.8-4.4,3.1-7.3,4
				c-0.2-0.3-0.5-0.8-0.8-1c2.9-0.8,5.4-2.1,7.3-3.8c-1.4-1.6-2.5-3.6-3.4-5.8L81.4,404.7z M82.8,400.4c-0.1,0.1-0.2,0.2-0.4,0.1
				c-1.3,2-3.2,4.1-5,5.4c-0.2-0.3-0.6-0.7-0.9-0.9c1.7-1.2,3.7-3.3,4.8-5.3L82.8,400.4z M87.4,399.7c1.9,1.5,4.1,3.7,5.2,5.2
				l-1.1,0.8c-1-1.5-3.2-3.7-5.1-5.3L87.4,399.7z"/>
			<path class="st0" d="M106.3,401l0.8,0.5c-0.1,0.1-0.1,0.1-0.2,0.2c-2.3,3.9-7.5,6.5-12.1,7.5c-0.1-0.3-0.4-0.8-0.6-1
				c2.3-0.4,4.7-1.3,6.8-2.5c-0.7-0.5-1.7-1.2-2.5-1.6l0.8-0.7c0.9,0.4,2,1.1,2.7,1.6c1.3-0.8,2.4-1.8,3.2-2.9H100
				c-1.3,0.9-2.8,1.9-4.6,2.7c-0.2-0.3-0.5-0.7-0.8-0.9c3-1.2,5.4-2.9,6.6-4.3l1.5,0.3c0,0.1-0.2,0.2-0.4,0.2
				c-0.3,0.3-0.7,0.7-1.1,1h4.8L106.3,401z M108.7,407.2l0.2-0.1c0.7,0.3,0.8,0.4,0.8,0.4c0,0.1-0.1,0.1-0.2,0.2
				c-2.3,5-7.8,7.2-13.5,8.1c-0.1-0.3-0.3-0.8-0.5-1.1c2.8-0.3,5.6-1.1,7.9-2.3c-0.8-0.7-1.9-1.5-2.9-2l0.9-0.7
				c1,0.6,2.3,1.4,3.1,2.1c1.5-0.9,2.7-2.1,3.5-3.6h-5.4c-1.5,1.1-3.4,2.1-5.7,3c-0.2-0.3-0.5-0.7-0.7-0.9c3.6-1.3,6.4-3.1,7.8-4.7
				l1.5,0.3c-0.1,0.1-0.2,0.2-0.4,0.2c-0.4,0.4-0.8,0.7-1.2,1.1H108.7z"/>
		</g>
		<g class="st1">
			<path class="st0" d="M127.4,402h-13.7v4.5c0,2.7-0.2,6.7-1.7,9.3c-0.2-0.2-0.7-0.6-0.9-0.7c1.4-2.5,1.5-6,1.5-8.6v-5.5h6.6v-1.4
				l1.6,0.1c0,0.1-0.1,0.2-0.3,0.2v1.1h6.9V402z M121.3,410.9v1.3h6.1v0.9h-6.1v1.5c0,0.7-0.2,1-0.7,1.1c-0.5,0.1-1.5,0.1-3,0.1
				c-0.1-0.3-0.2-0.7-0.4-0.9c0.7,0,1.4,0,1.9,0c1,0,1.1,0,1.1-0.4V413h-6.2v-0.9h6.2v-1.3h-5.2v-0.8h5.2v-1.2
				c-1.6,0.1-3.2,0.2-4.7,0.2c0-0.2-0.1-0.6-0.2-0.8c3.4-0.1,7.5-0.4,9.7-0.8l0.9,0.8c-0.1,0-0.1,0.1-0.2,0.1c0,0-0.1,0-0.1,0
				c-1.1,0.2-2.5,0.4-4.1,0.5v1.3h5.3v0.8H121.3z M120.5,404.3H118v0.2c0.6,0.3,2,1.2,2.4,1.5l-0.6,0.7c-0.3-0.3-1.1-0.9-1.8-1.4
				v2.2h-0.9v-2.4c-0.7,0.9-1.6,1.7-2.4,2.2c-0.1-0.2-0.4-0.5-0.6-0.7c1-0.5,2.1-1.4,2.8-2.3h-2.3v-0.9h2.6v-1.3l1.2,0.1
				c0,0.1-0.1,0.2-0.3,0.2v1h2.5V404.3z M124.4,407.4h-0.9v-2.3c-0.7,0.9-1.6,1.7-2.4,2.1c-0.2-0.2-0.4-0.5-0.6-0.7
				c1-0.5,2-1.3,2.7-2.3H121v-0.9h2.5v-1.3l1.3,0.1c0,0.1-0.1,0.2-0.3,0.2v1h2.7v0.9h-2.3c0.7,0.9,1.8,1.8,2.7,2.3
				c-0.2,0.2-0.5,0.5-0.7,0.7c-0.8-0.5-1.7-1.4-2.5-2.3V407.4z"/>
			<path class="st0" d="M129.6,400.7h13.1v10.4h-1.2v-0.9h-4.8v5.5h-1.2v-5.5h-4.7v1h-1.2V400.7z M135.4,401.8h-4.7v3.1h4.7V401.8z
				 M130.7,409.1h4.7v-3.1h-4.7V409.1z M141.5,404.9v-3.1h-4.8v3.1H141.5z M136.7,409.1h4.8v-3.1h-4.8V409.1z"/>
		</g>
		<g class="st1">
			<path class="st0" d="M158.3,409.9l0.3,0.1c-0.1,0.1-0.2,0.2-0.4,0.1c-0.8,1.2-2,2.2-3.4,2.9c2,0.8,4.4,1.4,6.9,1.6
				c-0.2,0.3-0.5,0.7-0.7,1c-2.8-0.3-5.3-1-7.5-2.1c-2.2,1-4.8,1.6-7.6,2c-0.1-0.3-0.4-0.8-0.6-1c2.5-0.3,4.9-0.8,6.9-1.6
				c-1.4-0.8-2.5-1.8-3.4-2.9l0.5-0.2h-3.8v-1h7.2v-1.6l1.6,0.1c0,0.1-0.1,0.2-0.3,0.2v1.3h7.3v1H158.3z M146.2,406.7
				c0,0.1-0.1,0.2-0.2,0.2l-0.4-1.2c1.3-0.1,3.3-0.3,5.2-0.6c0.1-0.3,0.2-0.7,0.3-1.1h-4.6v-0.9h4.6V402h-5.2v-0.9h5.2v-1.6l1.5,0.1
				c0,0.1-0.1,0.2-0.3,0.2v3.1c0,2.3-0.5,4.5-4,5.8c-0.2-0.3-0.5-0.7-0.8-0.9c1.3-0.5,2.2-1.1,2.7-1.8L146.2,406.7z M150.1,409.9
				c0.8,1,2,1.9,3.5,2.6c1.4-0.7,2.5-1.6,3.4-2.6H150.1z M156,406.3v1.7h-1.1v-8.5l1.5,0.1c0,0.1-0.1,0.2-0.3,0.2v1.2h5.1v0.9H156
				v1.2h4.7v0.9H156v1.3h5.6v0.9H156z"/>
			<path class="st0" d="M163.7,400.4h14.7v15.4h-1.2v-0.9h-12.3v0.9h-1.2V400.4z M164.9,413.8h12.3v-12.3h-12.3V413.8z M171.5,411.1
				h4.5v1h-9.8v-1h4.2v-3.2H167v-1h3.4v-2.7h-3.9v-1h9.2v1h-4.1v2.7h3.7v1h-3.7V411.1z M174.5,410.8c-0.4-0.6-1.1-1.4-1.8-2l0.8-0.4
				c0.7,0.6,1.5,1.4,1.9,2L174.5,410.8z"/>
			<path class="st0" d="M180.6,413.8h15.8v1.2h-15.8V413.8z M195.9,403.1v1.2h-14.7v-1.2h6.7v-3.6l1.6,0.1c0,0.1-0.1,0.2-0.3,0.2
				v3.2H195.9z M184.7,405.2c0.9,2.4,1.5,5.4,1.6,7.4c-0.1,0-0.2,0-1.2,0.3c-0.1-2-0.7-5-1.6-7.3L184.7,405.2z M193.9,405.4
				c-0.1,0.1-0.2,0.2-0.4,0.2c-0.5,2.3-1.5,5.7-2.3,7.6l-1-0.3c0.8-2,1.7-5.5,2.1-7.9L193.9,405.4z"/>
			<path class="st0" d="M204.3,400.6c-0.1,0.1-0.2,0.2-0.4,0.2c-1.2,2.6-3,5.3-4.9,7c-0.2-0.2-0.7-0.6-1-0.8
				c1.9-1.6,3.7-4.2,4.7-6.9L204.3,400.6z M206.2,406.4c-0.1,0.1-0.2,0.2-0.4,0.2c-0.8,2.1-2.1,4.9-3.3,7c2.5-0.1,5.4-0.2,8.2-0.3
				c-0.8-1.2-1.8-2.5-2.7-3.5l1.1-0.5c1.6,1.8,3.5,4.3,4.4,5.9l-1.2,0.6c-0.2-0.4-0.5-0.9-0.9-1.5c-4.4,0.3-9,0.5-11.9,0.6
				c0,0.1-0.2,0.2-0.3,0.2l-0.5-1.5l2.5-0.1c1.2-2.2,2.6-5.4,3.4-7.7L206.2,406.4z M208.9,400.1c1.2,2.4,3.5,5.2,5.1,6.7
				c-0.3,0.2-0.8,0.7-1,1c-1.6-1.7-3.9-4.7-5.3-7.2L208.9,400.1z"/>
			<path class="st0" d="M216,400.3h14.7v15.4h-1.2V415h-12.4v0.8H216V400.3z M217.1,413.9h12.4v-12.5h-12.4V413.9z M224,409.4
				c0.4,0.5,0.9,0.9,1.4,1.3c0.8-0.5,1.7-1.1,2.2-1.6l1,0.6c-0.1,0.1-0.2,0.1-0.3,0.1c-0.5,0.4-1.4,0.9-2.1,1.3
				c0.9,0.5,1.9,1,2.9,1.2c-0.2,0.2-0.5,0.5-0.7,0.8c-1.7-0.5-3.6-1.6-4.8-2.9v3.1h-1.1v-2.7c-1.2,0.8-2.7,1.6-4.1,2.1
				c-0.1-0.2-0.5-0.6-0.6-0.7c1.6-0.5,3.5-1.4,4.8-2.5h-3.1v-3h7.7v3H224z M228.6,404.8v0.8h-10.6v-0.8h4.7v-1.2h-3.6v-0.8h3.6v-1.1
				l1.4,0.1c0,0.1-0.1,0.2-0.3,0.2v0.7h3.7v0.8h-3.7v1.2H228.6z M220.5,407.2v1.5h5.6v-1.5H220.5z"/>
			<path class="st0" d="M238.2,403.3v2.1h4.2v1.1h-4.2v1.7h3.6v4.9c0,1.1-0.5,1.2-2.6,1.2c0-0.3-0.2-0.7-0.3-1c0.4,0,0.7,0,1,0
				c0.8,0,0.8,0,0.8-0.2v-3.8h-2.5v6.4h-1.1v-6.4h-2.4v5h-1.1v-6.1h3.5v-1.7h-4.4v-1.1h4.4v-2.1h-2.3c-0.2,0.8-0.5,1.6-0.8,2.1
				c-0.2-0.2-0.7-0.3-1-0.5c0.6-1.2,1-3.1,1.3-4.9l1.4,0.3c0,0.1-0.1,0.2-0.4,0.2c-0.1,0.5-0.2,1.1-0.3,1.6h2.1v-2.6l1.5,0.1
				c0,0.1-0.1,0.2-0.3,0.2v2.3h3.6v1.1H238.2z M244.8,401.7c0,0.1-0.1,0.2-0.3,0.2v9.4h-1.1v-9.8L244.8,401.7z M247,399.9l1.5,0.1
				c0,0.1-0.1,0.2-0.3,0.2v14c0,1.5-0.8,1.6-3.5,1.5c-0.1-0.3-0.2-0.8-0.4-1.2c0.6,0,1.2,0,1.7,0c0.9,0,1.1,0,1.1-0.4V399.9z"/>
			<path class="st0" d="M258.9,410.3v3.8c0.9,0.2,1.9,0.2,3,0.2c0.6,0,3.7,0,4.5,0c-0.2,0.3-0.4,0.8-0.5,1.2h-4.1
				c-3.8,0-6.5-0.6-8.1-3.8c-0.6,1.7-1.5,3.1-2.7,4.1c-0.2-0.2-0.6-0.6-0.9-0.8c1.9-1.4,2.9-4.1,3.3-7.3l1.5,0.2
				c0,0.1-0.1,0.2-0.3,0.2c-0.1,0.7-0.2,1.4-0.4,2c0.7,2,1.9,3,3.5,3.6v-7.7h-4.5V405h10.3v1.1h-4.6v3.1h5.4v1.1H258.9z
				 M252.1,402.8v2.6H251v-3.8h6.7v-2.1l1.6,0.1c0,0.1-0.1,0.2-0.4,0.2v1.8h6.7v3.8h-1.2v-2.6H252.1z"/>
			<path class="st0" d="M268.1,401.2h7.7v0.9l-5.5,12.1h-1.5l5.5-11.8v0h-6.2V401.2z"/>
			<path class="st0" d="M277.3,407.8c0-4.6,1.8-6.8,4.2-6.8c2.5,0,4,2.3,4,6.6c0,4.5-1.6,6.9-4.2,6.9
				C279,414.5,277.3,412.1,277.3,407.8z M284.1,407.7c0-3.3-0.8-5.5-2.6-5.5c-1.6,0-2.7,2.1-2.7,5.5c0,3.4,1,5.6,2.6,5.6
				C283.3,413.3,284.1,410.8,284.1,407.7z"/>
			<path class="st0" d="M301.6,400.6v13.6c0,1.5-0.8,1.6-3.8,1.5c-0.1-0.3-0.2-0.8-0.4-1.1c0.6,0,1.2,0,1.6,0c1.3,0,1.4,0,1.4-0.5
				v-12.5H290v4.4c0,2.9-0.3,6.9-2.3,9.6c-0.2-0.2-0.7-0.6-0.9-0.8c1.9-2.6,2.1-6.1,2.1-8.9v-5.6H301.6z M290.7,406.5h3.7v-1.9h-3.3
				v-1h3.3V402l1.5,0.1c0,0.1-0.1,0.2-0.3,0.2v1.3h3.4v1h-3.4v1.9h3.9v1h-8.7V406.5z M298.5,413.6h-5.8v1h-1.1V409h6.9V413.6z
				 M297.4,409.9h-4.7v2.7h4.7V409.9z"/>
			<path class="st0" d="M320.4,410.6v1.2h-6.5v4h-1.2v-4h-8.3v-1.2h2.9v-4.8h5.3v-2.9h-4.5c-0.8,1.4-1.8,2.6-2.8,3.5
				c-0.2-0.2-0.7-0.6-0.9-0.8c1.6-1.4,3.2-3.8,4.1-6.2l1.5,0.5c-0.1,0.2-0.2,0.2-0.4,0.2c-0.2,0.6-0.5,1.1-0.8,1.7h10.8v1.2h-5.7
				v2.9h5.3v1.1h-5.3v3.7H320.4z M308.5,410.6h4.2v-3.7h-4.2V410.6z"/>
			<path class="st0" d="M321.7,403.5v-1h7v1H321.7z M328,409.6v5.1h-4.4v0.8h-1v-6H328z M322.6,405.8v-1h5.5v1H322.6z M322.6,408.2
				v-1h5.5v1H322.6z M328,400.2v1h-5.4v-1H328z M326.9,410.6h-3.3v3.1h3.3V410.6z M330.9,413.5c0,0.7,0.2,0.8,1.2,0.8h3.5
				c1,0,1.1-0.5,1.2-3c0.3,0.2,0.8,0.4,1.1,0.5c-0.2,2.9-0.6,3.6-2.3,3.6h-3.7c-1.8,0-2.3-0.4-2.3-1.9v-6.9h6.1v-4.9h-6.3v-1.1h7.5
				v8h-1.2v-0.8h-5V413.5z"/>
			<path class="st0" d="M348.3,399.6c-0.1,0.1-0.2,0.2-0.3,0.2c1.7,1.9,4.8,3.7,7.4,4.6c-0.3,0.3-0.5,0.7-0.7,1
				c-2.6-1-5.8-2.9-7.5-4.8c-1.5,1.8-4.4,3.8-7.4,5c-0.2-0.3-0.4-0.7-0.7-1c3-1.2,6-3.2,7.4-5.1L348.3,399.6z M342.9,410.8
				c-0.4,1.6-1.2,3.3-2.7,4.2l-0.9-0.7c1.4-0.8,2.2-2.3,2.5-3.9L342.9,410.8z M351.7,405.7l0.9,0.6c-0.1,0.1-0.1,0.1-0.2,0.2
				c-0.6,1.2-1.8,2.8-2.7,3.8c-0.2-0.2-0.6-0.4-0.9-0.6c0.7-0.8,1.5-1.9,2.1-2.9h-9.3v-1h10L351.7,405.7z M344,403.4h6.6v1H344
				V403.4z M345.2,413.8c0,0.5,0.1,0.5,1,0.5h2.9c0.7,0,0.9-0.3,0.9-2.2c0.3,0.2,0.7,0.4,1.1,0.4c-0.1,2.3-0.5,2.8-1.9,2.8h-3.1
				c-1.6,0-2-0.3-2-1.6v-3.3l1.5,0.1c0,0.1-0.1,0.2-0.3,0.2V413.8z M348.3,411.6c-0.7-0.8-2.2-1.8-3.5-2.4l0.7-0.8
				c1.3,0.6,2.8,1.6,3.5,2.4L348.3,411.6z M354.1,414.9c-0.5-1.2-1.9-2.9-3.2-4.1l1-0.6c1.3,1.2,2.7,2.8,3.3,4L354.1,414.9z"/>
			<path class="st0" d="M365.8,399.5c-0.1,0.2-0.2,0.2-0.4,0.3c1.7,2.5,4.9,5.2,7.6,6.7c-0.3,0.3-0.6,0.7-0.8,1
				c-2.8-1.6-5.9-4.4-7.5-6.8c-1.4,2.3-4.3,5.1-7.4,6.9c-0.2-0.2-0.5-0.6-0.7-0.9c3.1-1.8,6.1-4.8,7.5-7.3L365.8,399.5z
				 M365.5,409.5v4.6h6.9v1.1h-15.1v-1.1h2.3v-6.7l1.5,0.1c0,0.1-0.1,0.2-0.3,0.2v6.3h3.5v-9.9l1.6,0.1c0,0.1-0.1,0.2-0.3,0.2v3.9
				h5.2v1.1H365.5z"/>
			<path class="st0" d="M374.4,400.7H390v1.1h-7.3v2.1h3.7v7.9h-8.6v-7.9h3.6v-2.1h-7.1V400.7z M388.4,413.5v-9.8l1.5,0.1
				c0,0.1-0.1,0.2-0.3,0.2v11.7h-1.2v-1.1h-12.3v1.1h-1.2v-12l1.5,0.1c0,0.1-0.1,0.2-0.3,0.2v9.5H388.4z M378.9,404.9v2.5h2.7v-2.5
				H378.9z M378.9,408.3v2.5h2.7v-2.5H378.9z M385.4,407.4v-2.5h-2.7v2.5H385.4z M385.4,410.8v-2.5h-2.7v2.5H385.4z"/>
		</g>
		<g class="st1">
			<path class="st0" d="M4,333.7c-0.6,0.8-1.1,1.4-1.6,1.9c-0.5,0.5-0.9,0.9-1.2,1.1c-0.2,0.1-0.3,0-0.3-0.3c0.6-0.9,1-1.7,1.2-2.3
				c0.9-2.2,1.5-4.2,1.7-6.1H1.1l-0.2-0.6H4v-3.2c-0.8,0.1-1.5,0.2-2.2,0.3c-1.1,0.1-1.4,0-0.8-0.3c0.1-0.1,0.3-0.1,0.5-0.2
				c1.8-0.8,3.7-1.8,5.6-3.1l1.7,1.5c0.5,0.5,0.4,0.7-0.2,0.8l-1.1,0.1l-1.4,0.4v3.7h0.4l1.1-1.8l1.5,1.8c0.2,0.4,0.2,0.6-0.2,0.7
				H6.1v2.2c1.2,0.2,2,0.7,2.6,1.4h4.1c0.1-1.4,0.2-2.8,0.2-4.2h-1.8c-0.4,0.7-0.7,1.3-1.1,1.9c-0.6,0.9-1,1.5-1.3,1.8
				c-0.4,0.2-0.5,0.1-0.4-0.3c0.5-1.5,0.9-2.7,1.1-3.7c0.2-0.9,0.3-2.3,0.4-4l2.5,0.6c0.4,0.2,0.4,0.5,0.1,0.9l-0.4,0.3
				c-0.2,0.7-0.5,1.3-0.7,1.8h1.6v-5.7l2.5,0.3c0.6,0.2,0.7,0.6,0.2,1.1l-0.4,0.3v4h1.6l1.5-2l1.8,1.8c0.4,0.4,0.3,0.7-0.2,0.8h-4.7
				c-0.1,1.1-0.1,2.5-0.2,4.2H18l1.5-2l1.8,1.8c0.4,0.4,0.3,0.7-0.2,0.8h-5.7c0.6,1.6,1.5,2.9,2.7,3.9c0.6,0.5,1.9,1.4,3.9,2.6
				c-0.6,0.2-1.1,0.5-1.4,0.8c-0.3,0.2-0.7,0.7-1.1,1.3c-1.2-1.1-2.1-2.1-2.7-3.2c-0.8-1.4-1.4-3-1.8-4.7c-0.3,1.4-0.6,2.5-1.1,3.2
				c-1,1.9-2.7,3.4-5.1,4.5c-0.4,0.2-0.9,0.4-1.5,0.6c-0.4,0.1-0.4-0.1,0-0.4c3.3-2.2,5.1-5.1,5.5-8.7H9c0.2,0.4,0.2,0.7,0.2,1
				c-0.1,0.7-0.5,1.1-1.1,1.1c-0.5,0-0.8-0.2-1-0.7c-0.1-0.2-0.1-0.7-0.3-1.3c-0.1-0.5-0.3-1-0.7-1.4v9.7c0,0.2-0.1,0.4-0.2,0.4
				c-0.6,0.2-1.1,0.4-1.5,0.4c-0.3,0-0.4-0.1-0.4-0.4V333.7z"/>
			<path class="st0" d="M37.9,329.9c-0.4,0.8-0.8,1.5-1.2,2.2c-0.4,0.6-0.9,1.5-1.8,2.5c1.4,0.9,2.8,1.6,4.1,2.1
				c1.4,0.5,3,1,4.7,1.3c-1.2,0.6-2,1.5-2.5,2.7c-1.9-0.8-3.4-1.6-4.6-2.3c-0.9-0.5-1.9-1.3-3.1-2.4c-1,0.9-1.9,1.7-2.8,2.2
				c-1.3,0.8-2.8,1.4-4.6,2c-1.5,0.5-2.2,0.6-2.4,0.4c-0.1-0.1,0.1-0.3,0.6-0.5c1.6-0.7,3.1-1.5,4.3-2.4c1.2-0.8,2.3-1.9,3.3-3.2
				c-1.1-1.5-2-3-2.5-4.6c-0.3-0.7-0.5-1.3-0.6-1.8c0.2-0.4,0.5-0.1,0.9,0.8c0.6,1.3,1.8,2.7,3.3,4.1c0.8-1.5,1.7-3.5,2.7-6.1
				l2.7,1.8c0.6,0.5,0.5,0.8-0.3,1L37.9,329.9z M31.5,324.4c-1.3,1.8-2.7,3.2-4.1,4.5c-1.2,1.1-2.1,1.7-2.6,1.8
				c-0.4,0.2-0.4,0.1-0.2-0.4c0.3-0.4,0.7-0.8,1.1-1.5c1.5-2.1,2.7-4.5,3.7-7.2l2.8,1.5c0.8,0.5,0.6,0.8-0.4,1.1L31.5,324.4z
				 M42.2,329.8c-0.5,0.1-0.9,0-1.1-0.3c-0.2-0.4-0.5-0.8-0.8-1.5c-0.9-2-2.4-3.7-4.5-5.3c-0.4-0.4-0.4-0.5,0.2-0.4
				c0.2,0.1,0.4,0.1,0.6,0.2c3.7,1.1,5.9,2.7,6.5,4.9C43.5,328.8,43.2,329.6,42.2,329.8z"/>
			<path class="st0" d="M60.7,325.3c-1.2,1.4-2.4,2.6-3.5,3.6c-1.8,1.6-3.8,2.9-6,3.7c-1.2,0.5-2.4,0.8-3.8,1.1
				c-0.6,0.3-1.1,0.3-1.3,0c0-0.1,0.4-0.4,1.2-0.7c1.2-0.5,2.5-1.1,3.9-2c1-0.6,1.8-1.1,2.4-1.7c-0.3-0.1-0.5-0.3-0.6-0.6
				c0-0.1-0.1-0.4-0.3-0.9c-0.2-0.6-0.5-1-1-1.3c-1.1,0.9-1.9,1.6-2.5,2c-0.6,0.4-1.3,0.8-2.2,1.2c-0.2,0.1-0.4,0.1-0.5,0.3
				c-0.4,0.2-0.6,0.2-0.7,0.2c-0.4-0.1-0.2-0.4,0.4-0.7c1-0.8,2-1.7,3-2.8c1.6-1.7,3-3.8,4.4-6.2l2.3,1.1c0.6,0.5,0.6,0.9,0.2,1.1
				l-0.7,0.2c-0.2,0.2-0.3,0.4-0.4,0.5h3.9l1-1.1l1.9,1.9c0.5,0.5,0.4,0.9-0.2,1.1L60.7,325.3z M64.8,333.3c-1.1,1.3-2.1,2.3-3,3.1
				c-1.2,1.1-2.2,1.9-3.2,2.5c-2,1.2-4.3,2-7,2.4c-1.9,0.3-2.9,0.4-3.2,0.3c-0.3-0.2-0.2-0.4,0.3-0.5c1-0.3,2-0.6,3.2-0.9
				c1.7-0.5,3.3-1.3,4.9-2.4c-0.4-0.1-0.6-0.2-0.7-0.5c-0.1-0.1-0.1-0.4-0.2-0.9c-0.1-0.5-0.4-1-1-1.5c-1.5,0.9-3.1,1.6-4.8,2.1
				c-0.8,0.2-1.5,0.4-2.3,0.5c-0.4-0.1-0.4-0.2-0.1-0.4c0.1-0.1,0.3-0.2,0.7-0.4c2.3-1.1,4.1-2.2,5.3-3.3c1.7-1.5,3.4-3.3,5.1-5.6
				l2.2,1.5c0.6,0.5,0.6,0.8-0.3,1l-0.6,0.1c-0.2,0.2-0.5,0.6-1,1h3.7l0.9-1.1l2,1.8c0.6,0.6,0.6,1-0.3,1.1L64.8,333.3z M54.3,323.9
				c-0.9,1-1.5,1.7-2,2.2c1.2,0.1,2,0.3,2.5,0.8c0.2,0.2,0.4,0.5,0.5,1.1c1.5-1.4,2.6-2.7,3.4-4H54.3z M58.6,331.9
				c-0.9,0.9-1.9,1.7-3,2.5c1.9,0.4,2.7,1.1,2.6,2.1c1.4-1,2.9-2.5,4.4-4.6H58.6z"/>
			<path class="st0" d="M75.1,329.2c-0.9,0.9-1.8,1.7-2.9,2.3c-0.1,2-0.4,3.7-1,5.1c-0.6,1.6-1.4,2.9-2.4,4.1
				c-0.5,0.6-0.7,0.6-0.6,0.1c0.8-1.8,1.2-4.1,1.4-6.8c0.1-1.8,0.1-4.8,0-9l-0.1-2.8l2.8,1.1h5.5v-2.4l2.3,0.2
				c0.8,0.2,0.8,0.6,0.2,1.1l-0.2,0.1v1H85l1.5-1.8l1.8,1.7c0.4,0.4,0.3,0.6-0.2,0.7H72.2v7.1c0.9-1,1.7-2.3,2.4-3.9h-1.8l-0.2-0.6
				h2.5V324l1.8,0.3c0.8,0.2,0.9,0.6,0.2,1l-0.3,0.1v1.1H78l1-1.3l1.5,1.3H82V324l2,0.3c0.6,0.2,0.7,0.5,0.2,0.9l-0.4,0.2v1.1h1.6
				l1.3-1.5l1.5,1.5c0.3,0.3,0.2,0.5-0.2,0.6h-3.3c0.4,0.3,0.8,0.6,1.4,1c0.5,0.3,1.4,0.7,2.8,1.2c-0.8,0.6-1.3,1.3-1.7,1.9
				c-0.6-0.4-1.2-1-1.9-1.8c-0.4-0.5-0.8-1.2-1.5-2.2v3c0,0.3-0.1,0.5-0.3,0.5c-0.2,0.1-0.6,0.1-1.2,0.2c-0.2-0.1-0.3-0.2-0.3-0.4
				v-1.4c-0.4,0.4-0.8,0.7-1.3,1.1c-0.9,0.7-1.4,1.1-1.7,1.1c-0.2,0.1-0.3,0-0.2-0.3c0.4-0.4,0.7-0.8,1-1.1c0.7-0.8,1.2-1.8,1.6-2.8
				h-4.6v0.5c1.1,0,1.8,0.2,2.2,0.5c0.4,0.3,0.6,0.8,0.5,1.2c-0.4,0.9-0.8,1.1-1.5,0.4c-0.1-0.2-0.2-0.4-0.4-0.8
				c-0.1-0.4-0.4-0.8-0.9-1.1v3.2c0,0.2-0.1,0.4-0.3,0.5c-0.3,0.2-0.7,0.2-1.1,0.2c-0.2,0-0.3-0.1-0.4-0.4V329.2z M78.9,337.1h-7
				l-0.3-0.6h7.3v-1.4h-5.9l-0.3-0.6h6.1v-1.1l-4.1,0.2c-0.2,0.1-0.4,0.1-0.8,0.1c-1.2-0.1-1.3-0.2-0.4-0.5c1.6-0.2,2.8-0.4,3.4-0.5
				c0.6-0.1,1.6-0.4,3.2-0.7c0.9-0.2,2.3-0.6,4.2-1.2l1.5,1.5c0.5,0.6,0.4,0.8-0.3,0.8l-0.9-0.1l-3.6,0.4v1.3h2.5l1.4-1.2l1.6,1.3
				c0.4,0.2,0.3,0.4-0.1,0.5h-5.3v1.4h4.2l1.6-1.6l1.7,1.5c0.3,0.4,0.2,0.6-0.2,0.7h-7.3v2.2c0,0.8-0.3,1.3-1,1.7
				c-1.2,0.6-1.8,0.6-2,0.2c-0.1-0.1-0.1-0.4-0.2-0.8c0-0.2-0.1-0.3-0.4-0.4l-1.9-0.8c-0.5-0.3-0.6-0.5-0.3-0.5
				c0.1,0.1,0.2,0.1,0.4,0.1l2,0.1c0.8,0.1,1.2,0,1.1-0.4V337.1z"/>
			<path class="st0" d="M94.8,334.3v1c0,0.5-0.6,0.8-1.7,1c-0.6,0.1-1-0.1-1-0.5v-13.8l2.9,1.1h11.6l0.9-1.5l2.5,2.2
				c0.3,0.2,0.3,0.5-0.1,0.8l-0.5,0.4v9.9c0,0.4-0.2,0.6-0.5,0.8c-0.4,0.2-0.9,0.3-1.4,0.4c-0.5,0.1-0.7-0.1-0.7-0.4v-1.2H102v5.9
				c0,0.5-0.3,0.8-0.9,1c-0.8,0.2-1.3,0.3-1.5,0.2c-0.2-0.1-0.3-0.4-0.3-0.8v-6.2H94.8z M94.8,323.7v4.6h4.6v-4.6H94.8z M94.8,328.9
				v4.8h4.6v-4.8H94.8z M102,328.2h4.8v-4.6H102V328.2z M102,333.7h4.8v-4.8H102V333.7z"/>
			<path class="st0" d="M129.1,333.4c-0.6,0.9-1.1,1.6-1.5,2c-0.6,0.6-1.3,1.3-2,1.9c1,0.3,2.2,0.5,3.5,0.7c1.5,0.2,3.2,0.3,5,0.3
				c-1,0.8-1.7,1.6-2.2,2.6c-1.8-0.2-3.2-0.5-4.3-0.9c-1.3-0.4-2.5-0.9-3.8-1.5c-0.6,0.4-1.3,0.7-1.9,1c-0.8,0.4-1.8,0.7-3.1,1.1
				c-1.5,0.4-3.1,0.7-4.6,0.8c-0.2,0-0.4,0-0.6,0c-0.7-0.1-0.6-0.3,0.4-0.5c1.2-0.2,2.6-0.6,4.1-1.1c1.2-0.5,2.6-1.2,4.1-2.1
				c-1.7-1.3-3.1-2.7-4.3-4.2h-4.2l-0.4-0.6h8.3v-2.9l2.5,0.3c0.4,0.1,0.4,0.4,0.1,0.8l-0.3,0.2v1.7h5.7l1.7-1.8l2.1,1.8
				c0.4,0.4,0.4,0.6-0.2,0.7H129.1z M122.5,322.5v3.1c0,1.5-0.2,2.6-0.5,3.3c-0.4,0.8-1,1.5-1.9,2.2c-1.1,0.8-2.3,1.2-3.6,1.4
				c-0.4-0.1-0.4-0.2-0.1-0.4c0.9-0.4,1.6-0.9,2.3-1.5c0.6-0.5,1-1.2,1.2-1.9l-4.2,2l-0.2,0.2c-0.2,0.2-0.4,0.2-0.6,0l-1.6-2
				c2.6-0.3,4.8-0.6,6.7-0.9c0.1-0.4,0.1-0.8,0.1-1.2h-5.3l-0.3-0.6h5.6v-1.9h-6.1l-0.4-0.6h6.5v-2.5l2.7,0.4
				c0.4,0.1,0.4,0.4,0.1,0.8L122.5,322.5z M118.8,333.4c0.4,0.4,1.1,0.9,1.9,1.6c0.9,0.6,1.9,1.1,3,1.5c0.4-0.4,0.8-0.8,1.3-1.4
				c0.5-0.5,0.9-1.1,1.2-1.7H118.8z M127,329.2v1.7c0,0.4-0.4,0.7-1.2,0.9c-0.7,0.2-1.1,0-1.1-0.5V321l2.7,0.4
				c0.4,0.2,0.4,0.4,0.1,0.8l-0.5,0.3v1.1h3l1.4-1.6l1.9,1.5c0.4,0.4,0.4,0.6-0.2,0.7H127v1.9h2.5l1.1-1.3l1.7,1.3
				c0.3,0.3,0.2,0.5-0.2,0.6H127v1.9h3.2l1.4-1.6l1.9,1.5c0.4,0.4,0.3,0.6-0.2,0.7H127z"/>
		</g>
		<g class="st1">
			<path class="st0" d="M10.2,351h11.5c1.2,0,2.4-0.2,3.4-0.5c0.4-0.1,0.8-0.2,1.2-0.2c1.2,0,2.3,0.9,3.5,2.6
				c1.1,1.8,1.7,3.6,1.7,5.4c0,1.3-0.4,2.2-1.2,2.8c-0.6,0.4-1.3,0.7-2.1,0.7c-0.8,0-1.4-0.2-2-0.6c-0.6-0.4-1.1-1.1-1.7-2.1
				c-0.5-0.9-0.9-1.5-1.1-1.8s-0.6-0.4-1-0.4c-0.5,0-0.9,0.2-1.2,0.7c-0.2,0.5-0.4,1.2-0.4,2.2V372c0,1.3,0.1,2.2,0.4,2.7
				c0.3,0.6,0.8,1,1.5,1.3c0.8,0.3,1.3,0.7,1.6,1s0.4,0.7,0.4,1.2c0,1.1-0.7,1.8-2.1,2.3c-1.4,0.5-3.6,0.8-6.6,0.8
				c-3.6,0-6.3-0.3-8.1-0.9c-1.5-0.5-2.2-1.3-2.2-2.4c0-0.6,0.3-1.1,0.8-1.4c0.1-0.1,0.6-0.2,1.6-0.5c0.6-0.2,0.9-0.5,1.1-0.9
				s0.4-1.3,0.5-2.6c0.1-1.1,0.2-3,0.3-5.5c0.1-2.5,0.2-4.8,0.2-6.6c0-1.3-0.1-2.2-0.3-2.8c-0.2-0.6-0.5-0.8-1-0.8
				c-0.6,0-1.1,0.4-1.7,1.2c-1,1.5-1.8,2.5-2.4,3c-0.7,0.6-1.5,0.9-2.2,0.9c-0.8,0-1.4-0.3-2-0.9S0,359.6,0,358.7
				c0-0.9,0.2-1.9,0.6-3c0.4-1.1,1-2.1,1.6-3c1.1-1.5,2.2-2.2,3.3-2.2c0.3,0,0.6,0,1,0.1c0.8,0.2,1.4,0.3,1.9,0.3
				C9,351,9.6,351,10.2,351z"/>
			<path class="st0" d="M44.5,352.1l-0.3,9.2c0,1.1,0.3,1.6,1,1.6c0.4,0,0.7-0.2,1-0.7c1.4-2.1,3.3-3.1,5.7-3.1
				c2.3,0,4.2,0.7,5.5,2.1c0.6,0.6,1,1.4,1.3,2.2c0.3,0.9,0.4,2.1,0.4,3.7l0.2,7.9c0,0.7,0.1,1.2,0.3,1.5s0.6,0.7,1.2,1.2
				c0.4,0.3,0.6,0.7,0.6,1.2c0,1.6-2.4,2.4-7.1,2.4c-4.2,0-6.4-0.7-6.4-2.2c0-0.2,0-0.4,0.1-0.6c0.1-0.1,0.3-0.5,0.8-1.1
				c0.6-0.8,0.9-2.8,0.9-6c0-1.9-0.2-3.4-0.5-4.3c-0.5-1.2-1.3-1.8-2.6-1.8c-0.9,0-1.5,0.3-2,1c-0.3,0.5-0.5,1.3-0.5,2.6v4.2
				c0.1,1.9,0.2,2.9,0.3,3.2c0.1,0.2,0.4,0.7,1,1.4c0.3,0.3,0.4,0.7,0.4,1.1c0,1.7-2.1,2.5-6.4,2.5c-5,0-7.5-0.9-7.5-2.6
				c0-0.4,0.1-0.7,0.2-0.9c0.2-0.2,0.6-0.5,1.2-1c0.6-0.4,0.9-1.5,1.2-3.2c0.2-1.7,0.3-4.6,0.3-8.6c0-3.1-0.1-5.3-0.3-6.5
				c-0.1-0.5-0.2-0.8-0.3-1s-0.4-0.4-0.9-0.6c-0.9-0.5-1.4-1-1.4-1.6c0-0.7,0.3-1.3,1-1.8c0.7-0.5,2-0.9,3.9-1.5
				c2.6-0.7,4.7-1.1,6.3-1.1C44.1,351,44.5,351.3,44.5,352.1z"/>
			<path class="st0" d="M75.2,359.1c2.5,0,4.7,0.6,6.5,1.9c0.9,0.7,1.6,1.5,2,2.4c0.4,0.9,0.6,2.1,0.6,3.6l0,3.3
				c0,2.3,0.2,3.7,0.5,4.4c0.2,0.3,0.3,0.5,0.5,0.6s0.5,0.2,0.9,0.2c0.5,0.1,0.7,0.4,0.7,0.9c0,0.7-0.3,1.4-0.8,2.2
				c-0.6,0.8-1.3,1.4-2.2,1.9c-1.1,0.6-2.2,1-3.4,1c-1.5,0-2.7-0.5-3.6-1.6c-0.3-0.4-0.6-0.6-0.9-0.6c-0.3,0-0.7,0.2-1.2,0.5
				c-1.5,1.1-3.1,1.6-5,1.6c-1.9,0-3.5-0.4-4.6-1.2c-0.8-0.5-1.4-1.2-1.8-2.1c-0.5-0.9-0.7-1.8-0.7-2.7c0-1.5,0.6-2.9,1.8-4
				c1.9-1.8,4.8-2.8,8.6-2.8c0.8,0,1.4-0.1,1.6-0.3s0.3-0.6,0.3-1.2c0-1.5-0.2-2.7-0.5-3.4s-0.8-1-1.6-1c-0.4,0-0.8,0.1-1.2,0.4
				c-0.3,0.3-0.8,0.7-1.3,1.4c-1.3,1.9-2.7,2.8-4.1,2.8c-0.7,0-1.3-0.2-1.8-0.6c-0.5-0.4-0.7-1-0.7-1.7c0-0.7,0.3-1.4,0.8-2.1
				c0.6-0.7,1.3-1.3,2.3-1.8C69.6,359.8,72.4,359.1,75.2,359.1z M73.8,371.8c-0.6,0-1.2,0.3-1.7,0.8c-0.5,0.5-0.7,1.2-0.7,1.9
				c0,0.7,0.2,1.3,0.5,1.7c0.3,0.4,0.8,0.6,1.3,0.6c1.2,0,1.8-1,1.8-3c0-0.8-0.1-1.3-0.3-1.6S74.2,371.8,73.8,371.8z"/>
			<path class="st0" d="M114.7,367.2l0.3,7.7c0,0.6,0.1,1,0.3,1.3c0.2,0.3,0.6,0.8,1.3,1.6c0.2,0.2,0.3,0.6,0.3,1c0,1-0.6,1.6-1.7,2
				c-1.2,0.4-3.2,0.6-6.2,0.6c-2,0-3.4-0.2-4.3-0.5c-0.9-0.4-1.3-1-1.3-1.8c0-0.3,0-0.5,0.1-0.6c0.1-0.1,0.4-0.5,0.9-1
				c0.6-0.6,0.9-2.7,0.9-6.1c0-2-0.2-3.5-0.7-4.5c-0.4-0.8-1.1-1.2-2.1-1.2c-1,0-1.7,0.3-2,0.9s-0.5,1.8-0.5,3.4v4.3
				c0,0.9,0.1,1.5,0.2,1.8s0.5,0.9,1.1,1.9c0.2,0.3,0.2,0.6,0.2,0.9c0,0.9-0.6,1.5-1.8,1.9s-3.1,0.6-5.6,0.6c-4.1,0-6.1-0.8-6.1-2.5
				c0-0.4,0.1-0.6,0.2-0.8s0.4-0.4,0.9-0.8c0.4-0.3,0.6-0.6,0.7-1c0.1-0.4,0.2-1.2,0.3-2.6c0.1-1.7,0.2-3.4,0.2-5.2
				c0-1-0.1-1.7-0.2-2c-0.2-0.3-0.6-0.7-1.3-1.2c-0.6-0.4-0.9-0.9-0.9-1.4c0-0.6,0.3-1.1,0.8-1.4c0.5-0.4,1.6-0.8,3.2-1.4
				c1.4-0.5,2.8-0.9,4.1-1.3c1.3-0.3,2.2-0.5,2.7-0.5c0.4,0,0.8,0.2,1.1,0.5c0.3,0.3,0.4,0.7,0.4,1.1c0,0,0,0.2,0,0.5
				c0,0.1,0,0.2,0,0.3c0,0.7,0.3,1.1,0.9,1.1c0.4,0,0.7-0.3,1.1-0.8c1.3-1.8,3.1-2.7,5.5-2.7c1.8,0,3.4,0.5,4.7,1.4
				c0.9,0.7,1.6,1.5,1.9,2.4S114.7,365.4,114.7,367.2z"/>
			<path class="st0" d="M131,352.1l-0.2,6.9c0,0.7,0,1.7,0,3c0,1.5,0,2.3,0.1,2.6c0.1,0.6,0.4,0.9,0.9,0.9c0.4,0,1.1-0.3,2-0.8
				s1.4-1,1.4-1.3c0-0.2-0.2-0.5-0.5-0.9c-0.2-0.3-0.4-0.6-0.4-0.9c0-1.6,1.9-2.4,5.8-2.4c2,0,3.6,0.2,4.8,0.6
				c0.5,0.2,0.9,0.4,1.2,0.8c0.3,0.4,0.5,0.8,0.5,1.3c0,0.7-0.3,1.1-0.9,1.4c-0.1,0.1-0.6,0.2-1.3,0.3c-0.6,0.1-1.5,0.5-2.5,1.2
				c-1,0.7-1.5,1.2-1.5,1.5c0,0.2,0.6,1.2,1.9,2.9c1.2,1.7,2.4,3.2,3.5,4.5c0.7,0.8,1.2,1.4,1.6,1.8c0.4,0.3,0.9,0.7,1.6,1.1
				c1.1,0.6,1.6,1.2,1.6,2c0,0.8-0.3,1.4-1,1.8s-1.6,0.7-2.7,0.7h-7.1c-0.9,0-1.6-0.3-2.1-1l-3.6-4.7c-1-1.2-1.6-2-1.8-2.2
				c-0.2-0.2-0.4-0.4-0.5-0.4c-0.2,0-0.3,0.1-0.4,0.4c-0.1,0.3-0.1,0.8-0.1,1.5c0,0.7,0.1,1.1,0.2,1.4c0.1,0.3,0.5,0.7,1,1.1
				c0.4,0.3,0.6,0.8,0.6,1.4c0,1-0.5,1.8-1.6,2.2c-1.1,0.5-2.9,0.7-5.3,0.7c-2.9,0-4.8-0.1-5.7-0.4c-0.5-0.1-0.9-0.4-1.3-0.9
				c-0.4-0.4-0.5-0.9-0.5-1.4c0-0.6,0.3-1,0.9-1.4c0.5-0.3,0.9-0.6,1-0.8c0.1-0.2,0.3-0.5,0.4-0.8c0.3-2,0.5-5.2,0.5-9.5v-4.8
				c0-1.6-0.1-2.7-0.3-3.1c-0.2-0.5-0.6-0.7-1.2-0.8c-1.2-0.2-1.8-0.7-1.8-1.5c0-0.6,0.3-1.1,0.8-1.5s1.4-0.9,2.6-1.3
				c3.8-1.4,6.7-2.1,8.5-2.1C130.6,351,131,351.4,131,352.1z"/>
			<path class="st0" d="M160,359.1c0.7,0,1.9,0.2,3.6,0.5c0.3,0.1,0.6,0.1,0.8,0.1c0.2,0,0.7-0.1,1.4-0.4c0.3-0.1,0.6-0.2,0.9-0.2
				c0.7,0,1.4,0.4,2,1.3c0.6,0.7,1,1.4,1.4,2.3s0.5,1.5,0.5,2.1c0,0.6-0.2,1.1-0.6,1.5c-0.4,0.4-0.9,0.6-1.5,0.6
				c-0.5,0-1-0.1-1.4-0.4c-0.4-0.2-1-0.8-1.9-1.6c-0.9-0.9-1.7-1.4-2.3-1.4c-0.4,0-0.8,0.2-1.1,0.4c-0.3,0.3-0.4,0.7-0.4,1.1
				c0,0.7,0.7,1.4,2.1,2c2.5,1.1,4.4,2.3,5.7,3.6c1.1,1.1,1.7,2.5,1.7,4.1c0,2-0.9,3.7-2.7,5.1c-1.5,1.2-3.4,1.8-5.6,1.8
				c-0.6,0-1.6-0.1-3.1-0.3c-1.4-0.2-2.2-0.2-2.4-0.2c-0.2,0-0.4,0-0.7,0.1c-0.4,0.1-0.7,0.1-0.9,0.1c-0.7,0-1.2-0.2-1.6-0.5
				c-0.6-0.5-1.2-1.4-1.7-2.6s-0.8-2.2-0.8-3c0-1.3,0.5-2,1.6-2c0.4,0,0.8,0.1,1.1,0.4s1.1,1,2.2,2.2c0.6,0.6,1.1,1.1,1.5,1.3
				s0.8,0.4,1.3,0.4c0.5,0,0.9-0.1,1.2-0.4c0.3-0.3,0.4-0.6,0.4-1c0-0.7-0.6-1.3-1.7-1.8c-2.4-1.2-4-2.3-5.1-3.6
				c-1-1.2-1.6-2.6-1.6-4.3c0-1.7,0.5-3.2,1.6-4.5C155.3,360,157.3,359.1,160,359.1z"/>
			<path class="st0" d="M195.9,357.9c0.4,0,0.7,0.2,1,0.6c0.3,0.4,0.4,0.9,0.4,1.5c0,0.6-0.2,1.3-0.6,2c-0.4,0.8-0.8,1.4-1.3,1.8
				c-0.3,0.3-0.5,0.5-0.5,0.7c0,0,0,0.2,0,0.5c0,0.3,0.1,0.6,0.1,0.8c0,1.7-0.6,3.2-1.8,4.4c-1.1,1.1-2.4,1.9-4.1,2.5
				s-3.5,0.9-5.5,0.9c-0.5,0-1,0-1.4-0.1c-0.4,0-0.7-0.1-0.9-0.1c-0.8,0-1.2,0.4-1.2,1.2c0,0.5,0.3,0.9,0.8,1.2
				c0.5,0.3,1.2,0.4,2,0.4c0.6,0,1.4-0.1,2.6-0.2c2.4-0.3,4.2-0.5,5.3-0.5c1.7,0,3.1,0.3,4,0.9c0.8,0.4,1.4,1.1,1.8,1.8
				c0.4,0.8,0.7,1.6,0.7,2.5c0,1.5-0.5,2.9-1.6,4.3c-1.3,1.6-3.2,2.8-5.7,3.6c-2,0.6-4.2,0.9-6.8,0.9c-3.2,0-5.9-0.5-7.9-1.5
				c-0.9-0.5-1.7-1.1-2.2-1.8c-0.6-0.8-0.8-1.5-0.8-2.4c0-0.6,0.2-1.1,0.5-1.6c0.3-0.5,0.7-0.8,1.2-1c0.4-0.2,0.7-0.4,0.7-0.6
				c0-0.2-0.2-0.4-0.5-0.7c-1.2-1-1.8-2-1.8-3c0-0.7,0.3-1.4,0.8-2.2c0.6-0.7,1.3-1.3,2.1-1.7c0.4-0.2,0.5-0.4,0.5-0.5
				c0-0.2-0.2-0.5-0.7-0.9c-1.5-1.4-2.3-3-2.3-4.9c0-1,0.3-1.9,0.8-2.8c0.5-0.9,1.3-1.7,2.2-2.3c2.4-1.5,5-2.3,7.8-2.3
				c1.1,0,2.4,0.1,3.8,0.4c1.3,0.3,2.2,0.4,2.7,0.4c1.6,0,3.2-0.6,4.8-1.9C195.4,358,195.7,357.9,195.9,357.9z M179.2,382.4
				c-0.4,0-0.5,0.2-0.5,0.6c0,0.9,0.5,1.6,1.4,2.1c0.9,0.5,2.1,0.8,3.6,0.8c1.4,0,2.6-0.2,3.4-0.6s1.2-0.9,1.2-1.6
				c0-0.4-0.2-0.7-0.5-0.9c-0.3-0.3-0.7-0.4-1.1-0.4c-0.2,0-0.6,0-1,0.1c-0.8,0.1-1.7,0.2-2.7,0.2c-0.7,0-1.5,0-2.1-0.1
				c-0.5,0-0.9-0.1-1.2-0.2C179.4,382.4,179.3,382.4,179.2,382.4z M184,362.4c-0.7,0-1.3,0.3-1.8,0.8c-0.4,0.6-0.7,1.3-0.7,2.2
				c0,1.6,0.2,2.8,0.7,3.8c0.5,0.9,1.1,1.4,1.9,1.4c0.8,0,1.4-0.3,1.8-0.9c0.5-0.6,0.7-1.4,0.7-2.4c0-1.6-0.2-2.8-0.7-3.6
				S184.8,362.5,184,362.4z"/>
			<path class="st0" d="M210.7,360.6v12.7c0,1,0.1,1.7,0.3,2.2c0.2,0.5,0.6,0.9,1.1,1.3c0.5,0.3,0.8,0.6,0.9,0.8
				c0.2,0.2,0.2,0.5,0.2,0.9c0,1.9-2.4,2.8-7.2,2.8c-2.6,0-4.6-0.2-6.1-0.6c-0.5-0.1-0.9-0.4-1.2-0.8c-0.3-0.4-0.5-0.8-0.5-1.2
				c0-0.4,0.1-0.7,0.2-0.9c0.2-0.2,0.6-0.6,1.2-1.1c0.5-0.3,0.8-0.9,1-1.6s0.3-1.9,0.3-3.4c0-0.5,0-1.4-0.1-2.7
				c-0.1-1.3-0.1-2.1-0.1-2.3c-0.1-0.6-0.5-1.1-1.2-1.4c-0.9-0.4-1.4-1-1.4-1.8c0-0.9,0.6-1.6,1.8-2.1c1.6-0.6,3.4-1.2,5.3-1.6
				c1.9-0.4,3.3-0.7,4.3-0.7C210.3,359.2,210.7,359.7,210.7,360.6z M206.4,351c1.3,0,2.3,0.2,3,0.7c0.7,0.5,1.1,1.1,1.1,1.9
				c0,1.1-0.6,2-1.7,2.7c-1.8,1-3.9,1.6-6.5,1.6c-1.1,0-1.9-0.2-2.5-0.6c-0.8-0.5-1.3-1.3-1.3-2.2c0-1.3,0.9-2.2,2.7-3
				C203.1,351.4,204.8,351,206.4,351z"/>
			<path class="st0" d="M237.4,365.9l-5.7,11c-0.9,1.7-1.6,2.9-2.2,3.6c-0.6,0.7-1.3,1-2,1c-0.7,0-1.2-0.2-1.7-0.7
				c-0.9-1-1.7-2.1-2.3-3.4l-6.2-11.8c-0.3-0.6-0.7-1.1-1-1.4c-0.3-0.3-0.7-0.5-1.3-0.6c-1.1-0.3-1.7-0.9-1.7-1.8
				c0-0.9,0.7-1.5,2.1-1.9c1.4-0.4,3.5-0.6,6.5-0.6c2.5,0,4.3,0.2,5.5,0.5c1.2,0.4,1.8,0.9,1.8,1.7c0,0.5-0.3,1-0.8,1.5
				c-0.4,0.3-0.6,0.6-0.7,0.7c-0.1,0.2-0.2,0.4-0.2,0.6c0,0.5,0.3,1.3,1,2.5c0.6,1.1,1.2,1.7,1.8,1.7c0.4,0,0.7-0.1,0.9-0.4
				c0.2-0.3,0.7-1,1.3-2.1c0.5-0.8,0.7-1.5,0.7-1.9c0-0.4-0.2-0.8-0.7-1.2c-0.5-0.5-0.7-1-0.7-1.5c0-0.7,0.5-1.2,1.4-1.5
				s2.5-0.5,4.6-0.5c3,0,4.5,0.6,4.5,1.9c0,0.7-0.5,1.3-1.6,1.6c-0.8,0.3-1.4,0.5-1.7,0.9C238.5,364,238.1,364.7,237.4,365.9z"/>
			<path class="st0" d="M254.8,360.6v12.7c0,1,0.1,1.7,0.3,2.2c0.2,0.5,0.6,0.9,1.1,1.3c0.5,0.3,0.8,0.6,0.9,0.8
				c0.2,0.2,0.2,0.5,0.2,0.9c0,1.9-2.4,2.8-7.2,2.8c-2.6,0-4.6-0.2-6.1-0.6c-0.5-0.1-0.9-0.4-1.2-0.8c-0.3-0.4-0.5-0.8-0.5-1.2
				c0-0.4,0.1-0.7,0.2-0.9c0.2-0.2,0.6-0.6,1.2-1.1c0.5-0.3,0.8-0.9,1-1.6c0.2-0.8,0.3-1.9,0.3-3.4c0-0.5,0-1.4-0.1-2.7
				c-0.1-1.3-0.1-2.1-0.1-2.3c-0.1-0.6-0.5-1.1-1.2-1.4c-0.9-0.4-1.4-1-1.4-1.8c0-0.9,0.6-1.6,1.8-2.1c1.6-0.6,3.4-1.2,5.3-1.6
				c1.9-0.4,3.3-0.7,4.3-0.7C254.4,359.2,254.8,359.7,254.8,360.6z M250.5,351c1.3,0,2.3,0.2,3,0.7c0.7,0.5,1.1,1.1,1.1,1.9
				c0,1.1-0.6,2-1.7,2.7c-1.8,1-3.9,1.6-6.5,1.6c-1.1,0-1.9-0.2-2.5-0.6c-0.8-0.5-1.3-1.3-1.3-2.2c0-1.3,0.9-2.2,2.7-3
				C247.2,351.4,248.9,351,250.5,351z"/>
			<path class="st0" d="M285.2,367.2l0.3,7.7c0,0.6,0.1,1,0.3,1.3c0.2,0.3,0.6,0.8,1.3,1.6c0.2,0.2,0.3,0.6,0.3,1c0,1-0.6,1.6-1.7,2
				c-1.2,0.4-3.2,0.6-6.2,0.6c-2,0-3.4-0.2-4.3-0.5c-0.9-0.4-1.3-1-1.3-1.8c0-0.3,0-0.5,0.1-0.6c0.1-0.1,0.4-0.5,0.9-1
				c0.6-0.6,0.9-2.7,0.9-6.1c0-2-0.2-3.5-0.7-4.5c-0.4-0.8-1.1-1.2-2.1-1.2c-1,0-1.7,0.3-2,0.9s-0.5,1.8-0.5,3.4v4.3
				c0,0.9,0.1,1.5,0.2,1.8s0.5,0.9,1.1,1.9c0.2,0.3,0.2,0.6,0.2,0.9c0,0.9-0.6,1.5-1.8,1.9s-3.1,0.6-5.6,0.6c-4.1,0-6.1-0.8-6.1-2.5
				c0-0.4,0.1-0.6,0.2-0.8c0.1-0.2,0.4-0.4,0.9-0.8c0.4-0.3,0.6-0.6,0.7-1c0.1-0.4,0.2-1.2,0.3-2.6c0.1-1.7,0.2-3.4,0.2-5.2
				c0-1-0.1-1.7-0.2-2c-0.2-0.3-0.6-0.7-1.3-1.2c-0.6-0.4-0.9-0.9-0.9-1.4c0-0.6,0.3-1.1,0.8-1.4c0.5-0.4,1.6-0.8,3.2-1.4
				c1.4-0.5,2.8-0.9,4.1-1.3c1.3-0.3,2.2-0.5,2.7-0.5c0.4,0,0.8,0.2,1.1,0.5c0.3,0.3,0.4,0.7,0.4,1.1c0,0,0,0.2,0,0.5
				c0,0.1,0,0.2,0,0.3c0,0.7,0.3,1.1,0.9,1.1c0.4,0,0.7-0.3,1.1-0.8c1.3-1.8,3.1-2.7,5.5-2.7c1.8,0,3.4,0.5,4.7,1.4
				c0.9,0.7,1.6,1.5,1.9,2.4S285.1,365.4,285.2,367.2z"/>
			<path class="st0" d="M312.1,357.9c0.4,0,0.7,0.2,1,0.6c0.3,0.4,0.4,0.9,0.4,1.5c0,0.6-0.2,1.3-0.6,2c-0.4,0.8-0.8,1.4-1.3,1.8
				c-0.3,0.3-0.5,0.5-0.5,0.7c0,0,0,0.2,0,0.5c0,0.3,0.1,0.6,0.1,0.8c0,1.7-0.6,3.2-1.8,4.4c-1.1,1.1-2.4,1.9-4.1,2.5
				c-1.7,0.6-3.5,0.9-5.5,0.9c-0.5,0-1,0-1.4-0.1c-0.4,0-0.7-0.1-0.9-0.1c-0.8,0-1.2,0.4-1.2,1.2c0,0.5,0.3,0.9,0.8,1.2
				c0.5,0.3,1.2,0.4,2,0.4c0.6,0,1.4-0.1,2.6-0.2c2.4-0.3,4.2-0.5,5.3-0.5c1.7,0,3.1,0.3,4,0.9c0.8,0.4,1.4,1.1,1.8,1.8
				c0.4,0.8,0.7,1.6,0.7,2.5c0,1.5-0.5,2.9-1.6,4.3c-1.3,1.6-3.2,2.8-5.7,3.6c-2,0.6-4.2,0.9-6.8,0.9c-3.2,0-5.9-0.5-7.9-1.5
				c-0.9-0.5-1.7-1.1-2.2-1.8c-0.6-0.8-0.8-1.5-0.8-2.4c0-0.6,0.2-1.1,0.5-1.6c0.3-0.5,0.7-0.8,1.2-1c0.4-0.2,0.7-0.4,0.7-0.6
				c0-0.2-0.2-0.4-0.5-0.7c-1.2-1-1.8-2-1.8-3c0-0.7,0.3-1.4,0.8-2.2s1.3-1.3,2.1-1.7c0.4-0.2,0.5-0.4,0.5-0.5
				c0-0.2-0.2-0.5-0.7-0.9c-1.5-1.4-2.3-3-2.3-4.9c0-1,0.3-1.9,0.8-2.8s1.3-1.7,2.2-2.3c2.4-1.5,5-2.3,7.8-2.3
				c1.1,0,2.4,0.1,3.8,0.4c1.3,0.3,2.2,0.4,2.7,0.4c1.6,0,3.2-0.6,4.8-1.9C311.6,358,311.9,357.9,312.1,357.9z M295.4,382.4
				c-0.4,0-0.5,0.2-0.5,0.6c0,0.9,0.5,1.6,1.4,2.1c0.9,0.5,2.1,0.8,3.6,0.8c1.4,0,2.6-0.2,3.4-0.6s1.2-0.9,1.2-1.6
				c0-0.4-0.2-0.7-0.5-0.9c-0.3-0.3-0.7-0.4-1.1-0.4c-0.2,0-0.6,0-1,0.1c-0.8,0.1-1.7,0.2-2.7,0.2c-0.7,0-1.5,0-2.1-0.1
				c-0.5,0-0.9-0.1-1.2-0.2C295.6,382.4,295.5,382.4,295.4,382.4z M300.2,362.4c-0.7,0-1.3,0.3-1.8,0.8c-0.4,0.6-0.7,1.3-0.7,2.2
				c0,1.6,0.2,2.8,0.7,3.8c0.5,0.9,1.1,1.4,1.9,1.4c0.8,0,1.4-0.3,1.8-0.9c0.5-0.6,0.7-1.4,0.7-2.4c0-1.6-0.2-2.8-0.7-3.6
				S301,362.5,300.2,362.4z"/>
		</g>
		<g class="st1">
			<path class="st0" d="M344.8,358.8l-0.6-1.5c-0.4-0.9-0.9-1.5-1.5-1.8c-1.1-0.6-1.6-1.3-1.6-2.1c0-1.9,2.8-2.8,8.4-2.8
				c2.8,0,4.9,0.2,6.4,0.7c0.5,0.2,0.9,0.4,1.2,0.8c0.3,0.4,0.4,0.7,0.4,1.2c0,0.4-0.1,0.6-0.2,0.8s-0.5,0.6-1.1,1.1
				c-0.4,0.3-0.5,0.6-0.5,1c0,0.5,0.3,1.4,0.8,2.5l1.2,2.7c0.6,1.2,1,2,1.2,2.3c0.2,0.3,0.5,0.5,0.8,0.5c0.3,0,0.6-0.2,0.9-0.6
				c0.2-0.4,0.6-1.1,0.9-2.2l1.1-3.1c0.3-0.9,0.4-1.5,0.4-2c0-0.6-0.3-1-0.9-1.2c-1.2-0.4-1.8-1.1-1.8-2.1c0-0.9,0.5-1.5,1.4-1.9
				c0.9-0.4,2.5-0.6,4.7-0.6c1.4,0,2.5,0.2,3.3,0.5c1.1,0.4,1.6,1.1,1.6,2.1c0,0.4-0.1,0.8-0.3,1.1s-0.6,0.7-1.2,1.2
				c-0.4,0.3-0.7,0.7-0.9,1.1s-0.5,1.2-1,2.3l-3.8,10.2c-1.9,4.7-3.1,7.6-3.5,8.5c-0.4,0.9-0.8,1.7-1.2,2.4
				c-0.3,0.5-0.7,0.9-1.1,1.1c-0.4,0.2-0.9,0.3-1.6,0.3c-0.9,0-1.6-0.2-2.1-0.6c-0.5-0.4-1-1-1.3-1.9l-4.3-10.3
				c-0.2-0.6-0.4-0.9-0.5-1.1c-0.1-0.1-0.3-0.2-0.5-0.2c-0.3,0-0.6,0.2-0.8,0.5c-0.2,0.4-0.6,1.3-1.2,2.8l-3,7.4
				c-0.6,1.3-1.1,2.2-1.6,2.7s-1.3,0.6-2.3,0.6c-0.9,0-1.6-0.2-2.2-0.7c-0.5-0.4-1-1.2-1.5-2.3l-8.1-20.6c-0.3-0.8-0.6-1.3-0.7-1.5
				s-0.5-0.4-1.2-0.8c-0.7-0.4-1.1-1-1.1-1.9c0-2.1,2.6-3.1,7.7-3.1c2.6,0,4.5,0.2,5.7,0.5c1.1,0.4,1.7,1.1,1.7,2.2
				c0,0.3,0,0.6-0.1,0.7s-0.3,0.5-0.6,1c-0.2,0.3-0.3,0.6-0.3,1c0,0.7,0.5,2.2,1.5,4.6l0.9,2.1c0.4,0.9,0.6,1.4,0.8,1.6
				c0.1,0.2,0.3,0.3,0.5,0.3c0.6,0,1.2-0.8,1.8-2.4l0.9-2.5c0.1-0.2,0.1-0.3,0.1-0.4C344.9,359.1,344.9,359,344.8,358.8z"/>
		</g>
		<g class="st1">
			<path class="st0" d="M389.9,371.1h-10.3c-0.5,0-0.7,0.2-0.7,0.6c0,0.9,0.5,1.8,1.5,2.7s2.1,1.3,3.3,1.3c0.7,0,1.5-0.1,2.3-0.4
				c0.9-0.3,1.6-0.6,2.1-1c0.5-0.4,0.9-0.5,1.2-0.5c0.4,0,0.8,0.2,1.1,0.7s0.5,0.9,0.5,1.4c0,1.1-0.7,2.1-2,3c-2.3,1.7-5,2.6-8,2.6
				c-3.1,0-5.6-0.9-7.7-2.7c-1-0.9-1.8-1.9-2.5-3.2c-0.9-1.7-1.3-3.4-1.3-5.2c0-2.5,0.7-4.7,2.2-6.6c1.3-1.7,2.9-3,4.9-3.8
				c1.5-0.6,3.1-0.9,4.8-0.9c2.8,0,5.1,0.8,7.1,2.4c1,0.8,1.8,1.7,2.4,2.8c0.7,1.2,1,2.4,1,3.6c0,0.9-0.2,1.7-0.6,2.3
				C391,370.8,390.5,371.1,389.9,371.1z M380.2,367h2.2c0.9,0,1.4-0.4,1.4-1.3c0-0.8-0.2-1.4-0.7-1.9c-0.5-0.5-1-0.7-1.8-0.7
				c-0.8,0-1.5,0.3-1.9,1c-0.4,0.6-0.7,1.2-0.7,1.8c0,0.4,0.1,0.7,0.3,0.9C379.3,366.9,379.6,367,380.2,367z"/>
			<path class="st0" d="M413.7,371.1h-10.3c-0.5,0-0.7,0.2-0.7,0.6c0,0.9,0.5,1.8,1.5,2.7c1,0.8,2.1,1.3,3.3,1.3
				c0.7,0,1.5-0.1,2.3-0.4c0.9-0.3,1.6-0.6,2.1-1c0.5-0.4,0.9-0.5,1.2-0.5c0.4,0,0.8,0.2,1.1,0.7s0.5,0.9,0.5,1.4c0,1.1-0.7,2.1-2,3
				c-2.3,1.7-5,2.6-8,2.6c-3.1,0-5.6-0.9-7.7-2.7c-1-0.9-1.8-1.9-2.5-3.2c-0.9-1.7-1.3-3.4-1.3-5.2c0-2.5,0.7-4.7,2.2-6.6
				c1.3-1.7,2.9-3,4.9-3.8c1.5-0.6,3.1-0.9,4.8-0.9c2.8,0,5.1,0.8,7.1,2.4c1,0.8,1.8,1.7,2.4,2.8c0.7,1.2,1,2.4,1,3.6
				c0,0.9-0.2,1.7-0.6,2.3C414.8,370.8,414.3,371.1,413.7,371.1z M404,367h2.2c0.9,0,1.4-0.4,1.4-1.3c0-0.8-0.2-1.4-0.7-1.9
				c-0.5-0.5-1-0.7-1.8-0.7c-0.8,0-1.5,0.3-1.9,1c-0.4,0.6-0.7,1.2-0.7,1.8c0,0.4,0.1,0.7,0.3,0.9C403.1,366.9,403.4,367,404,367z"
				/>
			<path class="st0" d="M429.9,352.1l-0.2,6.9c0,0.7,0,1.7,0,3c0,1.5,0,2.3,0.1,2.6c0.1,0.6,0.4,0.9,0.9,0.9c0.4,0,1.1-0.3,2-0.8
				c0.9-0.6,1.4-1,1.4-1.3c0-0.2-0.2-0.5-0.5-0.9c-0.2-0.3-0.4-0.6-0.4-0.9c0-1.6,1.9-2.4,5.8-2.4c2,0,3.6,0.2,4.8,0.6
				c0.5,0.2,0.9,0.4,1.2,0.8c0.3,0.4,0.5,0.8,0.5,1.3c0,0.7-0.3,1.1-0.9,1.4c-0.1,0.1-0.6,0.2-1.3,0.3c-0.6,0.1-1.5,0.5-2.5,1.2
				c-1,0.7-1.5,1.2-1.5,1.5c0,0.2,0.6,1.2,1.9,2.9c1.2,1.7,2.4,3.2,3.5,4.5c0.7,0.8,1.2,1.4,1.6,1.8c0.4,0.3,0.9,0.7,1.6,1.1
				c1.1,0.6,1.6,1.2,1.6,2c0,0.8-0.3,1.4-1,1.8c-0.7,0.4-1.6,0.7-2.7,0.7h-7.1c-0.9,0-1.6-0.3-2.1-1l-3.6-4.7c-1-1.2-1.6-2-1.8-2.2
				c-0.2-0.2-0.4-0.4-0.5-0.4c-0.2,0-0.3,0.1-0.4,0.4s-0.1,0.8-0.1,1.5c0,0.7,0.1,1.1,0.2,1.4c0.1,0.3,0.5,0.7,1,1.1
				c0.4,0.3,0.6,0.8,0.6,1.4c0,1-0.5,1.8-1.6,2.2c-1.1,0.5-2.9,0.7-5.3,0.7c-2.9,0-4.8-0.1-5.7-0.4c-0.5-0.1-0.9-0.4-1.3-0.9
				c-0.4-0.4-0.5-0.9-0.5-1.4c0-0.6,0.3-1,0.9-1.4c0.5-0.3,0.9-0.6,1-0.8c0.1-0.2,0.3-0.5,0.4-0.8c0.3-2,0.5-5.2,0.5-9.5v-4.8
				c0-1.6-0.1-2.7-0.3-3.1c-0.2-0.5-0.6-0.7-1.2-0.8c-1.2-0.2-1.8-0.7-1.8-1.5c0-0.6,0.3-1.1,0.8-1.5c0.5-0.4,1.4-0.9,2.6-1.3
				c3.8-1.4,6.7-2.1,8.5-2.1C429.6,351,430,351.4,429.9,352.1z"/>
		</g>
	</g>
</g>
</svg>
